<svg xmlns="http://www.w3.org/2000/svg" xmlns:xlink="http://www.w3.org/1999/xlink" width="542pt" height="740pt" viewBox="0 0 541.59 740"><g id="graph0" class="graph" transform="scale(1 1) rotate(0) translate(4 736)"><title>ATM</title><polygon fill="#fff" stroke="none" points="-4 4 -4 -736 537.594 -736 537.594 4 -4 4"/><g id="node1" class="node"><title>ready</title><ellipse cx="433.594" cy="-714" fill="none" stroke="#000" rx="30.595" ry="18"/><text x="433.594" y="-710.3" font-family="Times,serif" font-size="14" text-anchor="middle">ready</text></g><g id="node2" class="node"><title>pin</title><ellipse cx="393.594" cy="-627" fill="none" stroke="#000" rx="27" ry="18"/><text x="393.594" y="-623.3" font-family="Times,serif" font-size="14" text-anchor="middle">pin</text></g><g id="edge1" class="edge"><title>ready-&gt;pin</title><path fill="none" stroke="#000" d="M413.254,-700.062C405.988,-694.274 398.611,-686.767 394.594,-678 391.361,-670.946 390.264,-662.723 390.205,-655.007"/><polygon fill="#000" stroke="#000" points="393.704 -655.107 390.665 -644.957 386.711 -654.786 393.704 -655.107"/><text x="427.594" y="-666.8" font-family="Times,serif" font-size="14" text-anchor="middle">insert-card</text></g><g id="node3" class="node"><title>action</title><ellipse cx="277.594" cy="-540" fill="none" stroke="#000" rx="32.494" ry="18"/><text x="277.594" y="-536.3" font-family="Times,serif" font-size="14" text-anchor="middle">action</text></g><g id="edge2" class="edge"><title>pin-&gt;action</title><path fill="none" stroke="#000" d="M375.976,-613.09C357.064,-599.232 326.78,-577.042 304.803,-560.938"/><polygon fill="#000" stroke="#000" points="306.671 -557.967 296.536 -554.88 302.534 -563.614 306.671 -557.967"/><text x="368.594" y="-579.8" font-family="Times,serif" font-size="14" text-anchor="middle">confirm</text></g><g id="node4" class="node"><title>return-card</title><ellipse cx="421.594" cy="-18" fill="none" stroke="#000" rx="50.091" ry="18"/><text x="421.594" y="-14.3" font-family="Times,serif" font-size="14" text-anchor="middle">return-card</text></g><g id="edge3" class="edge"><title>pin-&gt;return-card</title><path fill="none" stroke="#000" d="M402.3,-609.906C410.519,-593.185 421.594,-566.015 421.594,-541 421.594,-541 421.594,-541 421.594,-104 421.594,-84.7526 421.594,-63.0535 421.594,-46.3973"/><polygon fill="#000" stroke="#000" points="425.094 -46.256 421.594 -36.256 418.094 -46.257 425.094 -46.256"/><text x="440.594" y="-318.8" font-family="Times,serif" font-size="14" text-anchor="middle">reject</text></g><g id="node5" class="node"><title>deposit-account</title><ellipse cx="68.594" cy="-453" fill="none" stroke="#000" rx="66.089" ry="18"/><text x="68.594" y="-449.3" font-family="Times,serif" font-size="14" text-anchor="middle">deposit-account</text></g><g id="edge5" class="edge"><title>action-&gt;deposit-account</title><path fill="none" stroke="#000" d="M251.966,-528.577C217.483,-514.553 155.605,-489.387 113.351,-472.202"/><polygon fill="#000" stroke="#000" points="114.438 -468.866 103.856 -468.341 111.801 -475.351 114.438 -468.866"/><text x="210.094" y="-492.8" font-family="Times,serif" font-size="14" text-anchor="middle">deposit</text></g><g id="node10" class="node"><title>withdrawal-account</title><ellipse cx="234.594" cy="-453" fill="none" stroke="#000" rx="80.686" ry="18"/><text x="234.594" y="-449.3" font-family="Times,serif" font-size="14" text-anchor="middle">withdrawal-account</text></g><g id="edge10" class="edge"><title>action-&gt;withdrawal-account</title><path fill="none" stroke="#000" d="M269.099,-522.207C263.013,-510.178 254.702,-493.748 247.761,-480.028"/><polygon fill="#000" stroke="#000" points="250.856 -478.393 243.219 -471.049 244.61 -481.552 250.856 -478.393"/><text x="289.094" y="-492.8" font-family="Times,serif" font-size="14" text-anchor="middle">withdraw</text></g><g id="edge4" class="edge"><title>return-card-&gt;ready</title><path fill="none" stroke="#000" d="M439.242,-35.0541C454.66,-50.913 474.594,-76.6968 474.594,-104 474.594,-628 474.594,-628 474.594,-628 474.594,-651.077 470.943,-657.374 460.594,-678 458.619,-681.936 456.174,-685.865 453.567,-689.594"/><polygon fill="#000" stroke="#000" points="450.575 -687.748 447.34 -697.837 456.16 -691.968 450.575 -687.748"/><text x="504.094" y="-362.3" font-family="Times,serif" font-size="14" text-anchor="middle">withdraw</text></g><g id="node6" class="node"><title>deposit-amount</title><ellipse cx="67.594" cy="-366" fill="none" stroke="#000" rx="65.789" ry="18"/><text x="67.594" y="-362.3" font-family="Times,serif" font-size="14" text-anchor="middle">deposit-amount</text></g><g id="edge6" class="edge"><title>deposit-account-&gt;deposit-amount</title><path fill="none" stroke="#000" d="M68.3916,-434.799C68.2547,-423.163 68.071,-407.548 67.9144,-394.237"/><polygon fill="#000" stroke="#000" points="71.414 -394.134 67.796 -384.175 64.414 -394.216 71.414 -394.134"/><text x="93.094" y="-405.8" font-family="Times,serif" font-size="14" text-anchor="middle">provide</text></g><g id="node7" class="node"><title>confirm-deposit</title><ellipse cx="67.594" cy="-279" fill="none" stroke="#000" rx="67.688" ry="18"/><text x="67.594" y="-275.3" font-family="Times,serif" font-size="14" text-anchor="middle">confirm-deposit</text></g><g id="edge7" class="edge"><title>deposit-amount-&gt;confirm-deposit</title><path fill="none" stroke="#000" d="M67.594,-347.799C67.594,-336.163 67.594,-320.548 67.594,-307.237"/><polygon fill="#000" stroke="#000" points="71.094 -307.175 67.594 -297.175 64.094 -307.175 71.094 -307.175"/><text x="92.094" y="-318.8" font-family="Times,serif" font-size="14" text-anchor="middle">provide</text></g><g id="node8" class="node"><title>collect-envelope</title><ellipse cx="93.594" cy="-192" fill="none" stroke="#000" rx="68.788" ry="18"/><text x="93.594" y="-188.3" font-family="Times,serif" font-size="14" text-anchor="middle">collect-envelope</text></g><g id="edge8" class="edge"><title>confirm-deposit-&gt;collect-envelope</title><path fill="none" stroke="#000" d="M72.8555,-260.799C76.4501,-249.047 81.2858,-233.238 85.3835,-219.842"/><polygon fill="#000" stroke="#000" points="88.762 -220.762 88.34 -210.175 82.068 -218.714 88.762 -220.762"/><text x="108.594" y="-231.8" font-family="Times,serif" font-size="14" text-anchor="middle">confirm</text></g><g id="node9" class="node"><title>continue</title><ellipse cx="287.594" cy="-105" fill="none" stroke="#000" rx="40.893" ry="18"/><text x="287.594" y="-101.3" font-family="Times,serif" font-size="14" text-anchor="middle">continue</text></g><g id="edge9" class="edge"><title>collect-envelope-&gt;continue</title><path fill="none" stroke="#000" d="M127.386,-176.194C161.621,-161.195 214.46,-138.043 249.999,-122.472"/><polygon fill="#000" stroke="#000" points="251.779 -125.513 259.534 -118.294 248.97 -119.102 251.779 -125.513"/><text x="227.094" y="-144.8" font-family="Times,serif" font-size="14" text-anchor="middle">provide</text></g><g id="edge15" class="edge"><title>continue-&gt;action</title><path fill="none" stroke="#000" d="M309.628,-120.274C316.899,-125.949 324.436,-133.032 329.594,-141 342.135,-160.372 343.594,-167.923 343.594,-191 343.594,-454 343.594,-454 343.594,-454 343.594,-478.103 337.251,-484.866 322.594,-504 318.227,-509.701 312.72,-514.982 307.07,-519.624"/><polygon fill="#000" stroke="#000" points="304.626 -517.086 298.807 -525.94 308.877 -522.648 304.626 -517.086"/><text x="371.094" y="-318.8" font-family="Times,serif" font-size="14" text-anchor="middle">continue</text></g><g id="edge16" class="edge"><title>continue-&gt;return-card</title><path fill="none" stroke="#000" d="M310.023,-89.7729C331.655,-76.0511 364.631,-55.133 389.13,-39.593"/><polygon fill="#000" stroke="#000" points="391.166 -42.446 397.735 -34.134 387.416 -36.535 391.166 -42.446"/><text x="383.094" y="-57.8" font-family="Times,serif" font-size="14" text-anchor="middle">finish</text></g><g id="node11" class="node"><title>withdrawal-amount</title><ellipse cx="234.594" cy="-366" fill="none" stroke="#000" rx="79.886" ry="18"/><text x="234.594" y="-362.3" font-family="Times,serif" font-size="14" text-anchor="middle">withdrawal-amount</text></g><g id="edge11" class="edge"><title>withdrawal-account-&gt;withdrawal-amount</title><path fill="none" stroke="#000" d="M234.594,-434.799C234.594,-423.163 234.594,-407.548 234.594,-394.237"/><polygon fill="#000" stroke="#000" points="238.094 -394.175 234.594 -384.175 231.094 -394.175 238.094 -394.175"/><text x="259.094" y="-405.8" font-family="Times,serif" font-size="14" text-anchor="middle">provide</text></g><g id="node12" class="node"><title>confirm-withdrawal</title><ellipse cx="234.594" cy="-279" fill="none" stroke="#000" rx="81.486" ry="18"/><text x="234.594" y="-275.3" font-family="Times,serif" font-size="14" text-anchor="middle">confirm-withdrawal</text></g><g id="edge12" class="edge"><title>withdrawal-amount-&gt;confirm-withdrawal</title><path fill="none" stroke="#000" d="M234.594,-347.799C234.594,-336.163 234.594,-320.548 234.594,-307.237"/><polygon fill="#000" stroke="#000" points="238.094 -307.175 234.594 -297.175 231.094 -307.175 238.094 -307.175"/><text x="259.094" y="-318.8" font-family="Times,serif" font-size="14" text-anchor="middle">provide</text></g><g id="node13" class="node"><title>dispense-cash</title><ellipse cx="250.594" cy="-192" fill="none" stroke="#000" rx="59.59" ry="18"/><text x="250.594" y="-188.3" font-family="Times,serif" font-size="14" text-anchor="middle">dispense-cash</text></g><g id="edge13" class="edge"><title>confirm-withdrawal-&gt;dispense-cash</title><path fill="none" stroke="#000" d="M237.832,-260.799C240.022,-249.163 242.961,-233.548 245.467,-220.237"/><polygon fill="#000" stroke="#000" points="248.951 -220.65 247.361 -210.175 242.071 -219.355 248.951 -220.65"/><text x="269.594" y="-231.8" font-family="Times,serif" font-size="14" text-anchor="middle">confirm</text></g><g id="edge14" class="edge"><title>dispense-cash-&gt;continue</title><path fill="none" stroke="#000" d="M257.143,-173.749C260.911,-164.055 265.83,-151.774 270.594,-141 271.933,-137.973 273.382,-134.822 274.85,-131.706"/><polygon fill="#000" stroke="#000" points="278.039 -133.15 279.22 -122.621 271.731 -130.115 278.039 -133.15"/><text x="300.094" y="-144.8" font-family="Times,serif" font-size="14" text-anchor="middle">withdraw</text></g></g></svg>