<svg xmlns="http://www.w3.org/2000/svg" xmlns:xlink="http://www.w3.org/1999/xlink" width="202pt" height="128pt" viewBox="0 0 202.19 127.62"><g id="graph0" class="graph" transform="scale(1 1) rotate(0) translate(4 123.623)"><title>door</title><polygon fill="#fff" stroke="none" points="-4 4 -4 -123.623 198.189 -123.623 198.189 4 -4 4"/><g id="node1" class="node"><title>closed</title><ellipse cx="33.147" cy="-63.623" fill="none" stroke="#000" rx="33.295" ry="18"/><text x="33.147" y="-59.923" font-family="Times,serif" font-size="14" text-anchor="middle">closed</text></g><g id="node2" class="node"><title>open</title><ellipse cx="166.242" cy="-63.623" fill="none" stroke="#000" rx="27.895" ry="18"/><text x="166.242" y="-59.923" font-family="Times,serif" font-size="14" text-anchor="middle">open</text></g><g id="edge1" class="edge"><title>closed:n-&gt;open:n</title><path fill="none" stroke="#00f" d="M33.1471,-82.6228C33.1471,-108.849 137.795,-111.82 161.505,-91.5356"/><polygon fill="#00f" stroke="#00f" points="164.639 -93.096 166.242 -82.623 158.458 -89.811 164.639 -93.096"/><text x="102.294" y="-108.423" font-family="Times,serif" font-size="14" text-anchor="middle">open</text></g><g id="edge2" class="edge"><title>open:s-&gt;closed:s</title><path fill="none" stroke="red" d="M166.242,-44.6228C166.242,10.9488 48.7761,14.3135 34.5517,-34.5287"/><polygon fill="red" stroke="red" points="31.059 -34.236 33.147 -44.623 37.992 -35.201 31.059 -34.236"/><text x="102.294" y="-6.423" font-family="Times,serif" font-size="14" text-anchor="middle">close</text></g></g></svg>