<svg xmlns="http://www.w3.org/2000/svg" xmlns:xlink="http://www.w3.org/1999/xlink" width="468" height="120" viewBox="0 0 351.29 90.04"><g id="graph0" class="graph" transform="scale(1 1) rotate(0) translate(4 86.0441)"><title>matter</title><polygon fill="#fff" stroke="none" points="-4 4 -4 -86.044 347.29 -86.044 347.29 4 -4 4"/><g id="node1" class="node"><title>solid</title><ellipse cx="27.948" cy="-51.044" fill="none" stroke="#000" rx="27.895" ry="18"/><text x="27.948" y="-47.344" font-family="Times,serif" font-size="14" text-anchor="middle">solid</text></g><g id="node2" class="node"><title>liquid</title><ellipse cx="164.092" cy="-35.044" fill="none" stroke="#000" rx="31.396" ry="18"/><text x="164.092" y="-31.344" font-family="Times,serif" font-size="14" text-anchor="middle">liquid</text></g><g id="edge1" class="edge"><title>solid-&gt;liquid:nw</title><path fill="none" stroke="#000" d="M52.5935,-59.6817C76.7313,-66.9717 114.107,-73.8583 139.12,-57.5115"/><polygon fill="#000" stroke="#000" points="141.532 -60.062 147.092 -51.044 137.121 -54.626 141.532 -60.062"/><text x="94.395" y="-70.844" font-family="Times,serif" font-size="14" text-anchor="middle">melt</text></g><g id="edge2" class="edge"><title>liquid-&gt;solid:se</title><path fill="none" stroke="#000" d="M137.005,-25.6842C112.867,-18.6919 77.1675,-12.7817 52.9836,-28.5348"/><polygon fill="#000" stroke="#000" points="50.515 -26.03 44.947 -35.044 54.921 -31.47 50.515 -26.03"/><text x="94.395" y="-24.844" font-family="Times,serif" font-size="14" text-anchor="middle">freeze</text></g><g id="node3" class="node"><title>gas</title><ellipse cx="316.29" cy="-19.044" fill="none" stroke="#000" rx="27" ry="18"/><text x="316.29" y="-15.344" font-family="Times,serif" font-size="14" text-anchor="middle">gas</text></g><g id="edge3" class="edge"><title>liquid-&gt;gas:nw</title><path fill="none" stroke="#000" d="M191.061,-44.3341C219.079,-52.6597 263.564,-60.7422 292.551,-40.5213"/><polygon fill="#000" stroke="#000" points="294.868 -43.147 300.29 -34.044 290.375 -37.779 294.868 -43.147"/><text x="242.29" y="-56.844" font-family="Times,serif" font-size="14" text-anchor="middle">vaporize</text></g><g id="edge4" class="edge"><title>gas-&gt;liquid:se</title><path fill="none" stroke="#000" d="M292.403,-10.4674C264.928,-1.68648 218.836,8.03248 189.036,-12.4425"/><polygon fill="#000" stroke="#000" points="186.546 -9.961 181.092 -19.044 191.02 -15.345 186.546 -9.961"/><text x="242.29" y="-8.844" font-family="Times,serif" font-size="14" text-anchor="middle">condense</text></g></g></svg>