<svg xmlns="http://www.w3.org/2000/svg" xmlns:xlink="http://www.w3.org/1999/xlink" width="112" height="131pt" viewBox="0 0 84.15 131"><g id="graph0" class="graph" transform="scale(1 1) rotate(0) translate(4 127)"><title>fsm</title><polygon fill="#fff" stroke="none" points="-4 4 -4 -127 80.147 -127 80.147 4 -4 4"/><g id="node1" class="node"><title>closed</title><ellipse cx="33.147" cy="-105" fill="none" stroke="#000" rx="33.295" ry="18"/><text x="33.147" y="-101.3" font-family="Times,serif" font-size="14" text-anchor="middle">closed</text></g><g id="node2" class="node"><title>open</title><ellipse cx="33.147" cy="-18" fill="none" stroke="#000" rx="27.895" ry="18"/><text x="33.147" y="-14.3" font-family="Times,serif" font-size="14" text-anchor="middle">open</text></g><g id="edge1" class="edge"><title>closed-&gt;open</title><path fill="none" stroke="#000" d="M18.0465,-88.9414C13.2848,-83.1934 8.62325,-76.2639 6.14706,-69 2.93408,-59.5748 6.45226,-49.8089 11.8931,-41.4363"/><polygon fill="#000" stroke="#000" points="14.815 -43.375 18.057 -33.288 9.233 -39.151 14.815 -43.375"/><text x="23.147" y="-57.8" font-family="Times,serif" font-size="14" text-anchor="middle">open</text></g><g id="edge2" class="edge"><title>open-&gt;closed</title><path fill="none" stroke="#000" d="M37.2453,-35.9884C38.43,-41.6782 39.5609,-48.0801 40.1471,-54 40.8867,-61.4701 40.3481,-69.5378 39.3037,-76.9673"/><polygon fill="#000" stroke="#000" points="35.839 -76.464 37.571 -86.916 42.735 -77.665 35.839 -76.464"/><text x="58.147" y="-57.8" font-family="Times,serif" font-size="14" text-anchor="middle">close</text></g></g></svg>