<svg xmlns="http://www.w3.org/2000/svg" xmlns:xlink="http://www.w3.org/1999/xlink" width="430pt" height="264" viewBox="0 0 430 197.83"><g id="graph0" class="graph" transform="scale(1 1) rotate(0) translate(4 193.834)"><title>wizard</title><polygon fill="#fff" stroke="none" points="-4 4 -4 -193.834 426 -193.834 426 4 -4 4"/><g id="node1" class="node"><title>A</title><ellipse cx="27" cy="-146.834" fill="none" stroke="#000" rx="27" ry="18"/><text x="27" y="-143.134" font-family="Times,serif" font-size="14" text-anchor="middle">A</text></g><g id="node2" class="node"><title>B</title><ellipse cx="151" cy="-166.834" fill="none" stroke="#000" rx="27" ry="18"/><text x="151" y="-163.134" font-family="Times,serif" font-size="14" text-anchor="middle">B</text></g><g id="edge1" class="edge"><title>A:ne-&gt;B:w</title><path fill="none" stroke="#000" d="M41,-161.834C41.9938,-162.828 40.8699,-163.998 42,-164.834 68.4495,-184.392 84.2495,-170.282 113.867,-167.34"/><polygon fill="#000" stroke="#000" points="114.187 -170.829 124 -166.834 113.838 -163.837 114.187 -170.829"/><text x="89" y="-178.634" font-family="Times,serif" font-size="14" text-anchor="middle">step</text></g><g id="edge4" class="edge"><title>B:s-&gt;A:se</title><path fill="none" stroke="#000" d="M151,-147.834C151,-137.598 80.22,-127.138 52.9487,-129.272"/><polygon fill="#000" stroke="#000" points="51.811 -125.95 43 -131.834 53.557 -132.729 51.811 -125.95"/><text x="89" y="-135.634" font-family="Times,serif" font-size="14" text-anchor="middle">reset</text></g><g id="node3" class="node"><title>C</title><ellipse cx="275" cy="-133.834" fill="none" stroke="#000" rx="27" ry="18"/><text x="275" y="-130.134" font-family="Times,serif" font-size="14" text-anchor="middle">C</text></g><g id="edge2" class="edge"><title>B:e-&gt;C:w</title><path fill="none" stroke="#000" d="M178,-166.834C208.633,-166.834 212.943,-140.658 237.818,-134.932"/><polygon fill="#000" stroke="#000" points="238.433 -138.386 248 -133.834 237.682 -131.426 238.433 -138.386"/><text x="213" y="-165.634" font-family="Times,serif" font-size="14" text-anchor="middle">step</text></g><g id="edge5" class="edge"><title>C:s-&gt;A:se</title><path fill="none" stroke="#000" d="M275,-114.834C275,-93.0001 100.223,-99.3173 51.3987,-125.865"/><polygon fill="#000" stroke="#000" points="49.123 -123.188 43 -131.834 53.179 -128.894 49.123 -123.188"/><text x="151" y="-111.634" font-family="Times,serif" font-size="14" text-anchor="middle">reset</text></g><g id="node4" class="node"><title>D</title><ellipse cx="395" cy="-102.834" fill="none" stroke="#000" rx="27" ry="18"/><text x="395" y="-99.134" font-family="Times,serif" font-size="14" text-anchor="middle">D</text></g><g id="edge3" class="edge"><title>C:e-&gt;D:w</title><path fill="none" stroke="#000" d="M302,-133.834C330.61,-133.834 334.886,-109.674 357.792,-104.011"/><polygon fill="#000" stroke="#000" points="358.467 -107.457 368 -102.834 357.665 -100.503 358.467 -107.457"/><text x="335" y="-132.634" font-family="Times,serif" font-size="14" text-anchor="middle">step</text></g><g id="edge6" class="edge"><title>D:s-&gt;A:se</title><path fill="none" stroke="#000" d="M395,-83.834C395,70.6661 164.863,-16.254 50.3705,-124.664"/><polygon fill="#000" stroke="#000" points="47.728 -122.352 43 -131.834 52.609 -127.37 47.728 -122.352"/><text x="213" y="-32.634" font-family="Times,serif" font-size="14" text-anchor="middle">reset</text></g></g></svg>